<svg xmlns="http://www.w3.org/2000/svg" xmlns:xlink="http://www.w3.org/1999/xlink" version="1.1" x="0px" y="0px" viewBox="0 0 100 125" enable-background="new 0 0 100 100" xml:space="preserve"><path d="M50,94C25.738,94,6,74.262,6,50S25.738,6,50,6s44,19.738,44,44S74.262,94,50,94z M50,10c-22.056,0-40,17.944-40,40  s17.944,40,40,40s40-17.944,40-40S72.056,10,50,10z M24.375,64.548c-0.503,0-1.006-0.188-1.395-0.566  c-0.792-0.77-0.81-2.036-0.039-2.828l25.495-26.223c0.752-0.773,2.115-0.773,2.867,0L76.8,61.153  c0.771,0.792,0.753,2.059-0.039,2.828s-2.058,0.753-2.828-0.039L49.87,39.194L25.809,63.942  C25.417,64.346,24.896,64.548,24.375,64.548z"/></svg>